<svg width="420" height="420" viewBox="0 0 420 420" fill="none" xmlns="http://www.w3.org/2000/svg">
<path d="M204.036 135.341C203.881 134.994 203.726 134.648 203.408 133.785C202.832 132.634 202.42 132.001 202.007 131.367C201.85 131.016 201.694 130.665 201.374 129.797C200.772 128.682 200.334 128.083 199.896 127.484C199.34 126.334 198.784 125.185 197.832 123.677C197.24 123.066 197.039 122.818 196.831 122.576C194.282 117.792 191.732 113.008 189.059 107.619C188.585 106.768 188.234 106.522 187.883 106.275C187.754 105.699 187.626 105.123 187.194 104.451C182.261 95.1264 177.664 85.8815 172.996 76.6725C166.183 63.2308 159.152 49.8959 152.555 36.3497C149.768 30.6285 150.905 25.0275 155.897 19.9058C160.037 18.5604 163.567 17.0098 167.197 16.7208C174.693 16.1244 182.242 16.2005 189.768 16C210.335 16.0466 230.902 16.0931 252.145 16.3531C256.174 17.4786 259.525 18.3908 262.877 19.303C262.877 19.303 263.229 19.5794 263.49 19.9782C264.41 20.8203 265.068 21.2636 265.727 21.7069C272.613 34.4629 279.532 47.2008 286.367 59.9841C288.923 64.7642 291.281 69.6501 294.023 74.6717C295.803 78.0473 297.289 81.2389 299.229 84.9688C301.316 88.024 302.947 90.5409 304.578 93.0579C304.875 94.1179 305.171 95.178 305.74 96.7849C306.475 98.0324 306.937 98.733 307.398 99.4336C307.485 99.7536 307.572 100.074 307.833 100.849C308.518 101.947 309.028 102.59 309.539 103.232C309.539 103.232 309.506 103.566 309.638 103.98C310.356 105.348 310.942 106.303 311.528 107.258C311.528 107.258 311.515 107.582 311.655 107.988C312.371 109.349 312.947 110.305 313.523 111.26C313.523 111.26 313.524 111.593 313.689 111.977C314.427 113.273 315 114.185 315.573 115.097C315.573 115.097 315.536 115.511 315.708 115.939C316.438 117.308 316.996 118.251 317.555 119.193C317.555 119.193 317.551 119.569 317.752 119.953C318.433 121.04 318.913 121.742 319.394 122.444C319.403 122.773 319.411 123.102 319.678 123.885C320.432 125.03 320.929 125.721 321.425 126.412C321.47 126.751 321.516 127.09 321.841 127.867C322.576 128.98 323.032 129.657 323.488 130.334C323.545 130.689 323.602 131.044 323.947 131.882C326.013 135.615 327.791 138.864 329.569 142.113C329.569 142.113 329.558 142.514 329.769 142.926C330.431 144.053 330.88 144.769 331.329 145.484C331.329 145.484 331.383 145.634 331.486 145.991C332.008 146.786 332.427 147.224 332.846 147.662C332.964 148.24 333.082 148.818 333.486 149.883C334.252 151.1 334.733 151.829 335.213 152.557C335.034 152.9 335.08 153.209 335.594 153.923C336.3 155.091 336.762 155.821 337.224 156.552C337.291 156.862 337.357 157.171 337.674 157.916C338.39 159.067 338.854 159.782 339.318 160.498C339.408 160.818 339.498 161.138 339.841 161.924C344.593 170.943 349.092 179.496 353.591 188.049C353.591 188.049 353.542 188.462 353.718 188.906C354.365 190.067 354.836 190.784 355.307 191.5C355.266 191.853 355.365 192.16 355.818 192.876C356.472 194.042 356.913 194.755 357.353 195.467C357.961 196.775 358.569 198.083 359.484 199.879C360.267 201.097 360.743 201.827 361.219 202.557C361.26 202.867 361.302 203.177 361.611 203.918C362.35 205.072 362.822 205.793 363.295 206.515C363.371 206.829 363.448 207.144 363.776 207.897C364.475 209.044 364.922 209.752 365.369 210.46C365.369 210.46 365.398 210.619 365.527 211.04C367.628 215.012 369.599 218.563 371.57 222.115C371.57 222.115 371.532 222.51 371.713 222.926C372.476 224.206 373.056 225.069 373.637 225.932C373.637 225.932 373.614 226.398 373.787 226.888C374.843 228.919 375.727 230.46 376.611 232.002C376.943 232.749 377.274 233.496 377.793 234.784C378.461 236.021 378.942 236.717 379.423 237.412C379.423 237.412 379.445 237.609 379.559 238.027C380.917 240.774 382.161 243.104 383.405 245.433C383.405 245.433 383.439 245.618 383.565 245.997C384.203 247.103 384.715 247.83 385.226 248.556C385.021 248.884 385.046 249.194 385.575 249.917C386.332 251.071 386.813 251.793 387.294 252.515C387.345 252.835 387.396 253.155 387.735 253.899C388.466 255.041 388.908 255.758 389.35 256.475C389.415 256.801 389.481 257.127 389.829 257.881C390.564 258.991 391.015 259.674 391.467 260.357C391.467 260.357 391.444 260.582 391.57 260.996C392.292 262.386 392.888 263.362 393.485 264.338C393.598 264.693 393.712 265.049 394.086 265.815C394.713 266.817 395.079 267.41 395.445 268.002C395.445 268.002 395.52 267.895 395.488 268.255C396.064 269.582 396.672 270.547 397.28 271.512C397.211 271.858 397.292 272.163 397.744 272.883C398.43 274.046 398.897 274.754 399.364 275.462C400.331 277.977 401.609 280.422 402.201 283.022C403.588 289.113 401.134 293.721 395.573 297.377C394.655 298.028 394.194 298.367 393.734 298.707C393.273 298.762 392.812 298.818 392.049 299.057C361.281 299.291 330.815 299.372 300.349 299.33C298.079 299.326 295.81 298.431 293.133 297.929C287.295 294.523 283.923 289.497 281.117 283.881C276.163 273.964 270.973 264.165 265.546 253.791C264.718 252.865 264.226 252.463 263.733 252.062C262.787 250.493 261.841 248.925 260.881 246.725C259.221 242.457 257.719 238.748 255.904 235.2C247.811 219.382 239.628 203.611 231.46 187.526C230.927 186.651 230.41 186.074 229.9 185.286C229.906 185.075 229.657 184.735 229.602 184.376C228.266 181.928 226.985 179.838 225.46 177.539C224.944 176.768 224.673 176.207 224.633 175.61C224.483 174.956 224.102 174.336 223.675 173.389C223.431 172.675 223.232 172.288 223.096 171.608C222.698 170.763 222.235 170.209 221.751 169.678C221.731 169.7 221.776 169.661 221.814 169.325C221.283 168.076 220.715 167.164 220.146 166.251C219.99 165.927 219.833 165.603 219.62 164.758C219.091 163.58 218.618 162.923 218.146 162.265C217.997 161.935 217.848 161.604 217.612 160.754C217.055 159.587 216.583 158.939 216.111 158.29C215.98 157.952 215.849 157.614 215.621 156.709C214.382 154.192 213.241 152.242 212.1 150.292C211.428 148.94 210.757 147.588 209.878 145.675C209.159 144.498 208.646 143.883 208.133 143.268C208.055 142.911 207.976 142.554 207.725 141.684C207.086 140.532 206.619 139.893 206.153 139.254C206.005 138.917 205.858 138.58 205.517 137.742C204.895 136.608 204.466 135.974 204.036 135.341Z" fill="white"/>
<path d="M185.238 286.552C185.9 286.825 186.195 286.989 186.612 287.376C196.874 296.404 208.919 299.914 222.075 300.074C233.54 300.213 245.008 300.114 256.475 300.11C265.872 300.106 268.439 304.08 264.327 312.554C262.015 317.317 259.421 321.942 257.004 327.016C255.918 329.262 254.781 331.122 253.647 333.328C250.856 338.841 248.063 344.007 244.985 349.715C243.865 352.076 243.031 353.896 242.197 355.716C238.537 362.299 235.172 369.071 231.126 375.407C227.615 380.907 223.33 385.913 219.163 391.532C218.938 391.928 218.7 392.251 218.7 392.251C218.7 392.251 218.505 392.187 218.402 392.181C217.594 392.559 216.887 392.942 215.662 393.705C214.537 394.574 213.93 395.063 213.323 395.552C212.281 395.988 211.24 396.424 209.663 397.074C208.023 397.837 206.917 398.386 205.812 398.935C205.32 398.966 204.828 398.996 203.706 399.17C201.323 399.859 199.571 400.403 197.819 400.948C193.719 400.911 189.618 400.875 184.777 400.726C178.933 399.041 173.831 397.468 168.728 395.895C166.7 394.49 164.671 393.085 162.21 391.345C161.102 390.563 160.425 390.115 159.749 389.668C159.749 389.668 159.731 389.702 159.661 389.405C158.979 388.623 158.368 388.139 157.756 387.655C157.756 387.655 157.729 387.699 157.688 387.387C157.042 386.566 156.438 386.057 155.833 385.548C155.833 385.548 155.783 385.639 155.773 385.28C154.518 383.267 153.274 381.614 152.03 379.961C151.951 379.642 151.872 379.323 151.59 378.519C150.295 376.318 149.203 374.602 148.112 372.886C148.114 372.569 148.115 372.253 147.865 371.487C147.11 370.324 146.607 369.611 146.104 368.897C146.059 368.573 146.013 368.249 145.687 367.497C144.966 366.351 144.525 365.632 144.085 364.914C144.085 364.914 144.093 364.787 144.04 364.372C143.32 362.972 142.653 361.989 141.986 361.005C141.986 361.005 142.014 360.816 141.913 360.392C140.623 357.921 139.436 355.874 138.248 353.827C138.329 353.488 138.251 353.19 137.775 352.492C137.083 351.319 136.631 350.589 136.179 349.858C136.257 349.508 136.175 349.202 135.695 348.498C134.992 347.351 134.524 346.644 134.057 345.937C134.057 345.937 134.024 345.781 133.945 345.421C133.47 344.614 133.074 344.168 132.677 343.721C128.731 336.135 125.611 327.941 120.604 321.135C115.721 314.498 108.91 309.28 102.507 303.056C101.29 302.347 100.511 302.021 99.7329 301.695C99.7329 301.695 99.5693 301.406 99.2612 301.087C98.1788 300.549 97.4046 300.329 96.6304 300.109C96.0836 299.801 95.5369 299.493 94.4768 298.889C89.8429 297.515 85.7224 296.437 81.6019 295.359C81.1875 295.205 80.7731 295.051 79.6919 294.683C63.23 294.331 47.4349 294.191 31.6398 294.052C30.589 293.148 29.5383 292.245 28.3341 290.644C28.1205 287.817 28.0602 285.688 28 283.559C28.9132 281.915 29.8265 280.271 31.1281 278.172C32.7984 275.014 34.0804 272.311 35.3624 269.609C36.8104 266.736 38.2585 263.863 40.1477 260.533C40.8855 259.282 41.1823 258.489 41.479 257.695C41.727 257.474 41.975 257.252 42.4375 256.557C42.9589 255.275 43.2658 254.466 43.5726 253.658C44.93 251.297 46.2874 248.937 48.0699 246.169C48.7238 245.013 48.9525 244.265 49.1812 243.517C49.4006 243.209 49.62 242.901 50.2433 242.205C51.6074 239.749 52.5676 237.68 53.5278 235.611C53.7096 235.301 53.8915 234.991 54.3757 234.273C54.9469 233.109 55.2159 232.352 55.4848 231.596C55.6685 231.285 55.8523 230.975 56.3501 230.264C56.9698 229.12 57.2755 228.375 57.5812 227.631C57.7541 227.316 57.927 227.001 58.4005 226.294C59.006 225.15 59.3107 224.398 59.6155 223.645C59.6155 223.645 59.9039 223.398 60.2556 223.074C60.9504 221.719 61.2935 220.687 61.6367 219.656C61.6367 219.656 61.9093 219.386 62.242 219.085C62.8174 218.039 63.0602 217.294 63.3029 216.548C63.3029 216.548 63.5759 216.163 63.9527 215.882C64.6009 214.903 64.8722 214.207 65.1435 213.51C66.064 211.942 66.9845 210.374 67.9206 208.465C69.2134 207.187 70.44 206.17 71.7764 205.328C77.8227 201.518 83.8741 197.713 90.0012 194.036C90.7242 193.602 91.9237 193.962 93.5391 194.18C95.3629 194.069 96.55 193.73 97.737 193.392C98.4496 193.344 99.1622 193.297 100.621 193.357C104.837 193.668 108.308 193.87 111.779 194.072C112.034 194.292 112.33 194.403 113.149 194.61C114.72 194.907 115.809 194.999 116.899 195.09C117.474 195.399 118.05 195.709 119.09 196.321C120.338 196.773 121.122 196.921 121.905 197.069C135.515 203.076 142.225 215.023 148.478 227.519C155.02 240.594 161.459 253.767 168.915 266.32C173.247 273.614 179.489 279.773 185.238 286.552Z" fill="white"/>
</svg>
