<svg width="119" height="119" viewBox="0 0 119 119" fill="none" xmlns="http://www.w3.org/2000/svg">
<path d="M90.7029 21.2861L85.3181 26.6709L79.9334 21.2861C79.4733 20.8253 78.9269 20.4597 78.3253 20.2102C77.7238 19.9607 77.079 19.8323 76.4278 19.8323C75.7766 19.8323 75.1318 19.9607 74.5303 20.2102C73.9288 20.4597 73.3824 20.8253 72.9223 21.2861L66.7293 27.4791C62.0395 25.7106 57.0698 24.8002 52.0576 24.7917C28.8229 24.7917 9.91675 43.6978 9.91675 66.9375C9.91675 90.1772 28.8229 109.083 52.0576 109.083C75.2924 109.083 94.2035 90.1772 94.2035 66.9375C94.2006 62.4649 93.4791 58.0218 92.0664 53.7781L98.7403 47.1042C99.2012 46.6441 99.5668 46.0977 99.8163 45.4961C100.066 44.8946 100.194 44.2498 100.194 43.5986C100.194 42.9474 100.066 42.3026 99.8163 41.7011C99.5668 41.0996 99.2012 40.5532 98.7403 40.0931L92.3292 33.682L97.7338 28.2774C98.8692 27.1419 101.924 24.7917 104.125 24.7917H109.083V14.875H104.125C97.1834 14.875 91.3127 20.6614 90.7029 21.2861ZM52.0576 49.5833C47.4216 49.5833 43.0682 51.3882 39.7857 54.6656C38.1708 56.2744 36.8906 58.1872 36.0191 60.2935C35.1477 62.3999 34.7022 64.658 34.7084 66.9375H24.7917C24.7917 59.6587 27.623 52.8112 32.7697 47.6595C35.2962 45.1177 38.302 43.1025 41.6128 41.7305C44.9236 40.3585 48.4738 39.657 52.0576 39.6667V49.5833Z" fill="black"/>
<path d="M68 60.5C68 72.6503 58.1503 82.5 46 82.5C33.8497 82.5 24 72.6503 24 60.5C24 48.3497 33.8497 38.5 46 38.5C58.1503 38.5 68 48.3497 68 60.5Z" fill="black"/>
</svg>
