<svg width="16" height="16" viewBox="0 0 16 16" fill="none" xmlns="http://www.w3.org/2000/svg">
<path d="M15.9566 8.00028C15.9566 12.3953 12.3938 15.9582 7.99886 15.9582C3.60384 15.9582 0.0410156 12.3953 0.0410156 8.00028C0.0410156 3.60531 3.60384 0.0424805 7.99886 0.0424805C12.3938 0.0424805 15.9566 3.60531 15.9566 8.00028" fill="url(#paint0_linear_5_29)"/>
<path d="M4.96221 9.88335C5.01652 9.82904 5.09119 9.79736 5.17039 9.79736H12.3525C12.4837 9.79736 12.5493 9.95576 12.4566 10.0485L11.0378 11.4673C10.9835 11.5216 10.9088 11.5533 10.8296 11.5533H3.64754C3.5163 11.5533 3.45067 11.3949 3.54345 11.3021L4.96221 9.88335Z" fill="black"/>
<path d="M4.96221 4.58599C5.01878 4.53168 5.09346 4.5 5.17039 4.5H12.3525C12.4837 4.5 12.5493 4.65839 12.4566 4.75117L11.0378 6.16993C10.9835 6.22424 10.9088 6.25592 10.8296 6.25592H3.64754C3.5163 6.25592 3.45067 6.09752 3.54345 6.00475L4.96221 4.58599Z" fill="black"/>
<path d="M11.0378 7.21733C10.9835 7.16303 10.9088 7.13135 10.8296 7.13135H3.64754C3.5163 7.13135 3.45067 7.28974 3.54345 7.38252L4.96221 8.80128C5.01652 8.85559 5.09119 8.88727 5.17039 8.88727H12.3525C12.4837 8.88727 12.5493 8.72887 12.4566 8.6361L11.0378 7.21733Z" fill="black"/>
<defs>
<linearGradient id="paint0_linear_5_29" x1="7.99882" y1="0.0424805" x2="7.99882" y2="15.9582" gradientUnits="userSpaceOnUse">
<stop stop-color="#0DF2A9"/>
<stop offset="1" stop-color="#D725FD"/>
</linearGradient>
</defs>
</svg>
